<svg width="31" height="31" viewBox="0 0 31 31" fill="none" xmlns="http://www.w3.org/2000/svg">
<path fill-rule="evenodd" clip-rule="evenodd" d="M6.99426 3.13265C5.92819 3.87808 4.96417 4.75942 4.12732 5.75155C7.54709 5.43405 11.8918 5.95248 16.9359 8.47458C22.3224 11.1677 26.6598 11.2588 29.6785 10.6765C29.4046 9.84724 29.0597 9.05021 28.6513 8.29253C25.1958 8.65699 20.7658 8.17457 15.603 5.59326C12.3246 3.95405 9.43469 3.27881 6.99426 3.13265ZM26.6327 5.41939C23.9039 2.37045 19.9382 0.45166 15.5243 0.45166C14.2281 0.45166 12.9704 0.617166 11.7714 0.928176C13.3953 1.37125 15.1203 2.01947 16.9359 2.92729C20.7158 4.81721 23.9792 5.42573 26.6327 5.41939ZM30.3239 13.5874C26.6771 14.3076 21.6412 14.1596 15.603 11.1405C9.95794 8.31802 5.46497 8.35356 2.43474 9.02696C2.27833 9.06169 2.12561 9.0982 1.97657 9.1362C1.57983 9.99903 1.26315 10.9063 1.03593 11.8485C1.27861 11.7837 1.52939 11.7221 1.78814 11.6645C5.46432 10.8476 10.6585 10.8831 16.9359 14.0219C22.5811 16.8444 27.074 16.8088 30.1043 16.1354C30.2081 16.1124 30.3104 16.0886 30.411 16.064C30.422 15.829 30.4275 15.5926 30.4275 15.3549C30.4275 14.7569 30.3924 14.1671 30.3239 13.5874ZM29.9244 19.2091C26.313 19.8405 21.4237 19.5981 15.603 16.6878C9.95794 13.8653 5.46497 13.9008 2.43474 14.5742C1.76212 14.7237 1.15704 14.9057 0.623277 15.0979C0.621822 15.1833 0.621094 15.269 0.621094 15.3549C0.621094 23.5857 7.29349 30.2581 15.5243 30.2581C22.4223 30.2581 28.2258 25.5717 29.9244 19.2091Z" fill="#E3E4E4"/>
</svg>
