<svg xmlns="http://www.w3.org/2000/svg" width="128" height="128"><path fill="#231f20" d="M63.999 7.989c-30.883 0-56.009 25.126-56.009 56.01 0 30.885 25.126 56.012 56.009 56.012 30.885 0 56.011-25.127 56.011-56.012-.001-30.884-25.127-56.01-56.011-56.01zm29.81 41.402a23.97 23.97 0 0 1-5.464 5.798c.009.325.015.65.015.975 0 16.334-12.429 33.229-33.229 33.229a33.135 33.135 0 0 1-17.905-5.244.997.997 0 0 1-.402-1.177.99.99 0 0 1 1.056-.658c.877.101 1.746.151 2.584.151 4.08 0 7.968-1.097 11.381-3.193a12.318 12.318 0 0 1-8.842-8.221 1.003 1.003 0 0 1 .204-.969.993.993 0 0 1 .938-.317c.188.036.377.067.565.093-3.473-2.213-5.726-6.104-5.726-10.412v-.143a1 1 0 0 1 1.485-.874c.435.241.886.45 1.349.626a12.318 12.318 0 0 1-2.742-7.762c0-2.178.577-4.322 1.668-6.199a1 1 0 0 1 1.64-.13c5.319 6.522 13.051 10.625 21.368 11.381a12.57 12.57 0 0 1-.088-1.493c0-6.797 5.531-12.327 12.329-12.327 3.207 0 6.31 1.265 8.599 3.487a21.637 21.637 0 0 0 6.351-2.519 1 1 0 1 1 1.464 1.163 12.225 12.225 0 0 1-2.32 4.188 21.278 21.278 0 0 0 2.487-.924 1 1 0 0 1 1.235 1.471z"/></svg>